<svg width="940" height="528" viewBox="0 0 940 528" fill="none" xmlns="http://www.w3.org/2000/svg">
<path d="M251.465 164C32.7544 114.4 -6.73514 34 0.858988 0H940V528C802.293 524.8 669.986 412 621.047 356C588.982 312.667 470.176 213.6 251.465 164Z" fill="#341F97"/>
<path d="M462.153 116.788C310.684 81.4667 283.336 24.2121 288.595 0H939V376C843.631 373.721 752.001 293.394 718.108 253.515C695.902 222.657 613.622 152.109 462.153 116.788Z" fill="#5F27CD"/>
<path d="M607.452 77.7197C501.82 54.5167 482.747 16.9053 486.415 1H940V248C873.49 246.503 809.589 193.735 785.952 167.538C770.466 147.266 713.085 100.923 607.452 77.7197Z" fill="#7632FD"/>
</svg>
