<svg width="1100" height="163" viewBox="0 0 1100 163" fill="none" xmlns="http://www.w3.org/2000/svg">
<path d="M294.268 112.371C38.3296 127.683 -7.88155 152.504 1.0052 163H1100V0C938.854 0.987885 784.027 35.8106 726.757 53.0985C689.235 66.476 550.206 97.0591 294.268 112.371Z" fill="#341F97"/>
<path d="M540.818 126.946C363.567 137.85 331.563 155.525 337.717 163H1098.83V46.9242C987.227 47.6277 880.002 72.4257 840.339 84.7368C814.353 94.2632 718.069 116.042 540.818 126.946Z" fill="#5F27CD"/>
<path d="M710.849 139.007C587.236 146.17 564.917 157.781 569.209 162.691H1100V86.4394C1022.17 86.9015 947.392 103.192 919.731 111.279C901.609 117.537 834.461 131.844 710.849 139.007Z" fill="#7632FD"/>
</svg>
