<svg width="1100" height="508" viewBox="0 0 1100 508" fill="none" xmlns="http://www.w3.org/2000/svg">
<path d="M805.732 50.6288C1061.67 35.3167 1107.88 10.4962 1098.99 0L0 0V163C161.146 162.012 315.973 127.189 373.243 109.902C410.765 96.524 549.794 65.9409 805.732 50.6288Z" fill="#341F97"/>
<path d="M559.182 36.0538C736.433 25.1497 768.437 7.47458 762.283 0L1.1701 0V116.076C112.773 115.372 219.998 90.5743 259.661 78.2632C285.647 68.7368 381.931 46.9579 559.182 36.0538Z" fill="#5F27CD"/>
<path d="M389.151 23.993C512.764 16.83 535.083 5.21887 530.791 0.308716L0 0.308716V76.5606C77.8303 76.0985 152.608 59.8083 180.269 51.721C198.391 45.4629 265.539 31.1561 389.151 23.993Z" fill="#7632FD"/>
</svg>
